<svg xmlns="http://www.w3.org/2000/svg" width="257.333" height="201.333" viewBox="0 0 193 151" preserveAspectRatio="xMidYMid meet" xmlns:v="https://vecta.io/nano"><path d="M143.5 8.4c-1.6.7-4.1 2.6-5.5 4.1l-2.5 2.7V74v58.9l2.9 3c8.2 8.6 21.4 4.5 23.1-7.2.3-2.3.5-28.5.3-58.2-.3-49.7-.4-54.3-2.1-56.8-3.5-5.4-10.8-7.8-16.2-5.3zM89.3 35.5c-1.8.8-4.2 2.9-5.3 4.7-1.9 3.2-2 4.9-2 47.1 0 47.7 0 47.5 5.7 51.2 3.7 2.5 10.9 2.5 14.6 0 5.7-3.7 5.7-3.5 5.7-51.2 0-42.2-.1-43.9-2-47.1-2.1-3.4-7.2-6.2-11.2-6.2-1.3.1-3.8.7-5.5 1.5zm-54.4 27c-1.4.8-3.5 2.7-4.5 4.2-1.7 2.5-1.9 5.3-2.2 30.3-.2 15.1-.1 29.4.3 31.7 1.7 11.7 14.8 15.8 23.1 7.2l2.9-3 .3-30.4c.3-33.9 0-35.8-6-39.5-3.8-2.3-10.1-2.6-13.9-.5z"/></svg>