<svg xmlns="http://www.w3.org/2000/svg" width="400" height="418.667" viewBox="0 0 300 314" preserveAspectRatio="xMidYMid meet" xmlns:v="https://vecta.io/nano"><path d="M47.5 24.1c-11.7 3.7-20.8 13-24.5 24.8-2.5 7.8-2.8 28.5-.6 36.9 2.8 10.4 10.4 19.7 20.6 24.9l5.5 2.8 32.5.3c21.9.2 34.2 0 37.7-.8 11.3-2.5 22.4-12.9 26.4-24.9 1.8-5.3 2-8 1.7-21.8-.3-14.6-.5-16.2-3-21.5-3.1-6.7-9.6-14-15.5-17.5-8.2-4.8-12.5-5.3-44.8-5.2-26.9 0-30.6.2-36 2zm67.4 24.7c5.6 3 7.1 7.1 7.1 19 0 12-1.4 16.2-6.2 19.2-3.1 1.9-5 2-31.8 2-26 0-28.7-.2-31.3-1.9-5.3-3.5-6.2-5.7-6.5-17.6-.4-12.6.9-16.3 6.7-20.2 3.3-2.3 4-2.3 31-2.3 24.9 0 28 .2 31 1.8zm68-24.9c-10.5 3.4-19.4 11.4-24.1 21.7l-2.3 4.9V110v59.5l3.1 6.5c5.7 12.1 16.5 20.1 29.8 22.1 4.1.7 17.8.9 33.9.7 25.4-.4 27.6-.6 33-2.7 7.3-2.9 13.1-7.3 17.9-13.6 7.5-9.9 7.3-8 7.3-73v-58l-3.2-6.5c-4.1-8.4-10.7-15.1-19.1-19.2l-6.7-3.3-32-.2c-28.6-.2-32.6-.1-37.6 1.6zm65.5 24.5c1.8.7 4.4 2.9 5.7 4.7l2.4 3.4V110c0 50.6-.1 53.7-1.9 56.6-3.8 6.3-4.5 6.4-35.8 6.4-26.6 0-28.5-.1-31.6-2-6.2-3.8-6.2-3.5-6.2-61.3V57.3l2.3-3.4c4.3-6.6 6.1-6.9 35.5-6.9 20.1 0 27 .3 29.6 1.4zM49.9 124.3c-10.6 3-19.9 10.9-25.2 21.7l-3.2 6.5V211v58.5l2.3 5.7c3.4 8.4 10.7 16 20 20.5l7.6 3.8h32c28.6 0 32.7-.2 37.4-1.8 7.2-2.6 15-8.7 19.4-15.3 6.9-10.2 6.8-9.5 6.8-70.5 0-35.9-.4-56.6-1.1-59.9-2.2-10.4-12.6-22-23.6-26.5-4.4-1.7-7.8-2-36.3-2.2-23-.2-32.7.1-36.1 1zm64.1 25.5c1.9.9 4.5 3.2 5.7 5.1l2.3 3.4v52.4c0 57.8 0 57.5-6.2 61.3-3.1 1.9-5 2-31.6 2-32.2 0-32.6-.1-36.3-7.6-1.9-4-2-5.8-1.7-56.7.3-51.4.3-52.6 2.4-55.4 4.4-6 6.3-6.3 35.4-6.3 23.2 0 26.9.2 30 1.8zm69.5 59c-11.6 4-19.6 10.9-24.4 21.1-2.5 5.4-2.6 6.2-2.6 23.6s.1 18.2 2.7 23.7c5.1 11 16.2 19.4 28.8 21.8 8.4 1.6 55.2 1.2 63.4-.5 12.2-2.6 21.1-9.7 26.9-21.5l3.2-6.5v-17-17l-3.2-6.7c-3.3-7-10.1-14.6-15.6-17.5-9.7-5-12.3-5.3-44.1-5.3-25.9.1-30.8.3-35.1 1.8zm66.8 25.5c5.4 3.5 6.2 6 6.2 19.2 0 10.1-.3 12.4-1.9 14.8-3.7 5.5-4.9 5.7-36.5 5.7h-28.9l-3-2.5c-4.6-3.9-5.4-7-5-19.8.3-10.7.5-11.7 2.8-14.2 4.9-5.3 6.2-5.5 36-5.2 24.4.2 27.9.4 30.3 2z"/></svg>