<svg width="492" height="487" viewBox="0 0 492 487" fill="none" xmlns="http://www.w3.org/2000/svg">
<path d="M241 67L415 42V438H241V67Z" fill="#C9EEF9"/>
<path fill-rule="evenodd" clip-rule="evenodd" d="M111.728 219.224C116.396 222.037 120.983 223.396 123.136 222.841C128.536 221.45 129.032 201.706 124.854 193.922C120.677 186.138 99.1999 182.746 98.1174 198.168C97.7417 203.52 99.9901 208.297 103.312 212.195L97.3555 239.946H114.658L111.728 219.224Z" fill="#B28B67"/>
<path fill-rule="evenodd" clip-rule="evenodd" d="M121.986 185.375C125.638 185.816 128.646 186.179 129.961 185.341C130.9 191.225 127.872 195.968 117.223 195.051C114.875 196.364 113.204 198.824 111.193 202.051C110.703 201.858 110.17 201.753 109.611 201.753C107.222 201.753 105.286 203.689 105.286 206.077C105.286 207.289 105.785 208.385 106.589 209.17C105.588 210.582 104.466 212.057 103.181 213.579C98.3841 210.702 94.8164 202.318 99.3971 194.224C102.131 182.978 113.713 184.376 121.986 185.375Z" fill="black"/>
<path fill-rule="evenodd" clip-rule="evenodd" d="M96.6055 302.69L131.99 392.213L155.723 467.897H165.094L128.812 302.69L96.6055 302.69Z" fill="#997659"/>
<path fill-rule="evenodd" clip-rule="evenodd" d="M89.4798 302.69C89.103 334.149 83.6079 376.503 82.73 378.464C81.8521 380.425 22.1152 428.339 22.1152 428.339L28.5699 435.243C28.5699 435.243 99.0539 394.163 102.316 388.684C105.577 383.205 116.196 332.786 124.721 302.69H89.4798Z" fill="#B28B67"/>
<path fill-rule="evenodd" clip-rule="evenodd" d="M23.1361 426.987C22.9109 426.209 22.092 425.745 21.3305 426.022C19.8833 426.548 17.7221 427.416 16.7719 428.213C15.2781 429.466 12.8298 432.368 12.8298 432.368C14.2839 434.1 38.9668 463.504 38.9668 463.504C38.9668 463.504 43.9996 461.351 42.1246 458.467C40.2496 455.584 39.0557 453.638 39.0557 453.638L33.3535 433.724C33.2462 433.35 32.8506 433.137 32.4789 433.255L29.4123 434.227C29.4123 434.227 26.2504 432.754 24.9799 431.241C24.1951 430.306 23.5299 428.347 23.1361 426.987Z" fill="black"/>
<path fill-rule="evenodd" clip-rule="evenodd" d="M153.825 463.572C153.084 463.244 152.203 463.573 151.926 464.334C151.399 465.781 150.675 467.994 150.675 469.233C150.675 471.183 151.325 474.922 151.325 474.922C153.587 474.922 191.986 474.922 191.986 474.922C191.986 474.922 193.571 469.685 190.157 469.267C186.742 468.849 184.483 468.513 184.483 468.513L165.556 460.079C165.2 459.92 164.784 460.087 164.635 460.447L163.409 463.42C163.409 463.42 160.248 464.895 158.271 464.895C157.05 464.895 155.121 464.145 153.825 463.572Z" fill="black"/>
<path fill-rule="evenodd" clip-rule="evenodd" d="M120.395 460.101L164.952 455.267L131.93 302.69H92.0225L120.395 460.101Z" fill="#4D595A"/>
<path fill-rule="evenodd" clip-rule="evenodd" d="M31.332 417.2L60.5587 451.78C60.5587 451.78 106.734 401.369 114.4 385.993C122.065 370.618 128.181 302.69 128.181 302.69H83.2523C83.2523 302.69 79.9114 362.45 78.7482 365.231C77.5851 368.012 31.332 417.2 31.332 417.2Z" fill="#5E6364"/>
<path fill-rule="evenodd" clip-rule="evenodd" d="M44.9143 336.554C47.1062 332.137 58.0574 275.3 58.0574 275.3L74.4358 275.361C74.4358 275.361 55.7243 335.569 54.5705 338.409C53.0716 342.098 55.6177 347.458 57.3441 351.092C57.6112 351.654 57.8586 352.175 58.0685 352.643C55.673 353.707 54.5223 352.42 53.3091 351.064C51.9389 349.532 50.489 347.91 47.0759 349.487C45.7573 350.097 44.5095 350.817 43.2904 351.521C39.0794 353.952 35.2109 356.185 29.9485 352.96C29.1142 352.449 28.1999 350.524 30.4089 349.019C35.9122 345.272 43.8428 338.713 44.9143 336.554ZM182.855 314.407L161.667 293.879L154.63 305.972L176.663 318.874C182.187 327.517 185.432 331.251 186.397 330.077C187.21 329.087 186.837 328.002 186.494 327.003C186.227 326.224 185.977 325.497 186.32 324.908C187.103 323.563 191.526 324.333 195.693 325.243C199.859 326.152 198.895 324.12 198.009 323.059C194.072 319.903 189.02 317.019 182.855 314.407Z" fill="#B28B67"/>
<path fill-rule="evenodd" clip-rule="evenodd" d="M107.965 229.157L114.433 228.056C124.621 263.825 176.97 288.206 180.184 301.578C181.362 306.481 177.809 308.96 179.644 310.454L171.237 316.566C169.814 314.916 166.776 317.933 160.432 315.823C154.087 313.712 107.965 271.511 107.965 229.157Z" fill="#235494"/>
<path fill-rule="evenodd" clip-rule="evenodd" d="M96.2382 221.674C94.7134 221.568 93.3902 222.718 93.2829 224.243L92.9622 228.797C80.7904 238.1 50.622 265.898 42.7606 317.647C41.9348 323.083 43.4282 325.995 44.6214 328.321C45.4377 329.913 46.1135 331.23 45.8104 332.895L56.8126 335.911C56.8126 334.682 58.1992 333.747 59.9882 332.541C62.5894 330.787 66.0413 328.46 67.3176 323.821C68.5274 319.424 70.2989 313.932 72.4154 307.822C72.6152 315.914 74.1604 323.355 77.5263 329.519C85.9239 344.896 134.453 328.032 139.523 312.345C142.228 303.974 138.389 296.946 133.312 287.651C126.868 275.853 118.429 260.404 118.844 233.92L119.398 226.056C119.505 224.532 118.356 223.21 116.831 223.104L96.2382 221.674Z" fill="#3E89EC"/>
<path d="M311 1L492 43V448L311 487V1Z" fill="#3E89EC"/>
<path d="M353.5 222H492V259H353.5L341.5 240.5L353.5 222Z" fill="#36639E"/>
<g filter="url(#filter0_i_2348_1980)">
<path d="M328.001 4.99856L328.001 459L311.427 485.999L311.427 0.290544L328.001 4.99856Z" fill="#36639E"/>
</g>
<path d="M380 72.9895C380 64.0835 387.979 57.2977 396.769 58.7275L451.28 67.5937C458.037 68.6927 463 74.5287 463 81.3744V81.3744C463 89.8804 455.459 96.4097 447.04 95.1926L392.382 87.2901C385.274 86.2625 380 80.1709 380 72.9895V72.9895Z" fill="white"/>
<path d="M408.053 80.2065L409.28 71.5659L415.508 72.4503L415.239 74.3404L411.358 73.7892L411.147 75.2743L414.708 75.78L414.439 77.6701L410.878 77.1644L410.667 78.6495L414.532 79.1983L414.264 81.0884L408.053 80.2065ZM419.186 72.9726L420.246 75.6885L420.314 75.698L422.105 73.3872L424.721 73.7587L421.525 77.7123L423.595 82.4137L420.912 82.0326L419.808 79.2589L419.74 79.2493L417.908 81.606L415.241 81.2273L418.505 77.2833L416.553 72.5987L419.186 72.9726ZM428.078 74.2355L426.851 82.8761L424.505 82.5429L425.732 73.9024L428.078 74.2355ZM428.685 76.25L428.954 74.3598L436.464 75.4264L436.195 77.3165L433.596 76.9474L432.638 83.6978L430.325 83.3695L431.284 76.619L428.685 76.25Z" fill="#C16161"/>
<defs>
<filter id="filter0_i_2348_1980" x="311.427" y="0.290527" width="16.5742" height="489.708" filterUnits="userSpaceOnUse" color-interpolation-filters="sRGB">
<feFlood flood-opacity="0" result="BackgroundImageFix"/>
<feBlend mode="normal" in="SourceGraphic" in2="BackgroundImageFix" result="shape"/>
<feColorMatrix in="SourceAlpha" type="matrix" values="0 0 0 0 0 0 0 0 0 0 0 0 0 0 0 0 0 0 127 0" result="hardAlpha"/>
<feOffset dy="4"/>
<feGaussianBlur stdDeviation="2"/>
<feComposite in2="hardAlpha" operator="arithmetic" k2="-1" k3="1"/>
<feColorMatrix type="matrix" values="0 0 0 0 0 0 0 0 0 0 0 0 0 0 0 0 0 0 0.25 0"/>
<feBlend mode="normal" in2="shape" result="effect1_innerShadow_2348_1980"/>
</filter>
</defs>
</svg>
