<svg xmlns="http://www.w3.org/2000/svg" width="100%" viewBox="0 0 400 352" height="150" xmlns:v="https://vecta.io/nano"><path d="M208 26.645l23.99.025c12.287.138 22.38 8.881 24.378 20.923l2.964 16.661c2.359 12.19 13.006 18.4 24.78 14.391 5.985-2.038 11.796-4.617 17.837-6.451 10.897-3.309 22.857 1.432 28.865 11.596l26.379 45.909c6.321 11.351 3.686 24.146-6.194 32.452l-11.565 9.535c-10.825 8.98-10.932 21.267-.247 30.256 4.079 3.431 8.313 6.685 12.301 10.217 9.547 8.457 11.944 21.066 5.707 32.203l-26.763 46.265c-6.046 10.152-17.607 14.38-28.975 10.935-4.768-1.445-9.405-3.33-14.086-5.058-16.12-5.952-26.663.465-29.019 17.618-.632 4.606-1.282 9.223-2.246 13.767-2.355 11.099-12.253 19.33-23.615 19.42l-54.975.006c-11.879-.088-21.95-9.123-23.867-20.915l-3.046-17.16c-2.44-11.703-12.809-17.584-24.252-14.019-7.14 2.224-13.779 6.004-21.244 7.151-10.346 1.59-19.2-1.791-24.631-10.595-9.961-16.149-19.375-32.656-28.442-49.326-5.538-10.183-2.508-22.504 6.471-30.348 4.138-3.615 8.516-6.953 12.711-10.502 10.039-8.493 10.057-20.634.037-29.222-4.047-3.468-8.253-6.749-12.297-10.221-9.946-8.54-12.472-21.51-6.019-32.968l26.307-45.381c6.596-11.081 19.005-15.24 31.192-10.87l12.63 4.698c15.664 5.651 26.553-1.179 28.586-17.799.584-4.774 1.264-9.558 2.299-14.25 2.349-10.651 12.58-18.814 23.562-18.915L208 26.645m-40.79 63c-11.122 12.748-24.878 18.384-41.837 15.761-6.843-1.058-13.01-4.024-19.386-6.379-3.178-1.174-5.005-.894-6.795 2.314L77.724 138.57c-1.665 2.809-1.143 4.418 1.253 6.256a196.31 196.31 0 0 1 10.783 8.916c20.481 18.168 19.853 50.273-1.278 67.636-3.217 2.643-6.353 5.395-9.684 7.886-2.343 1.752-2.562 3.44-1.115 5.924l21.899 38.137c1.468 2.602 3.079 2.962 5.692 1.903a235.43 235.43 0 0 1 14.046-5.197c21.725-7.23 45.717 3.995 54.272 25.252 2.764 6.869 3.666 14.13 4.687 21.355.465 3.292 1.547 5.097 5.288 5.06l42.994-.002c3.139.026 4.59-1.263 5.029-4.201l2.095-13.286c3.188-22.432 27.09-39.679 49.331-35.862 7.648 1.313 14.679 4.265 21.841 6.912 2.671.987 4.184.573 5.637-2.007l21.666-37.688c1.732-2.947 1.179-4.764-1.424-6.688-3.211-2.374-6.241-5.001-9.272-7.609-18.513-15.929-21.464-41.341-7.235-61.064 4.484-6.216 10.854-10.295 16.57-15.093 2.755-2.313 3.036-4.028 1.216-7.081-6.824-11.444-13.653-22.902-19.905-34.661-2.701-5.08-5.406-6.287-10.343-3.401-2.264 1.324-4.972 1.875-7.451 2.847-22.502 8.823-43.955-1.027-54.441-17.144-5.47-8.408-6.667-18.036-8.022-27.542-.639-4.484-2.337-5.901-6.693-5.838-13.496.196-26.998.218-40.493-.015-4.59-.079-5.928 1.841-6.5 6.082-1.468 10.893-3.102 21.835-10.956 31.285zm96.783 117.036c-9.489 26.484-32.864 43.192-60.022 42.563-33.809-.784-57.191-27.025-60.581-54.397-4.203-33.933 19.509-62.158 47.87-68.613 35.136-7.996 71.218 17.091 75.279 52.537 1.092 9.526.097 18.507-2.547 27.909m-23.09-20.148l-.087-1.995c-1.113-21.04-19.784-35.953-41.475-33.129-19.81 2.579-33.993 23.108-29.711 43.005 3.923 18.226 20.229 29.913 39.581 28.292 17.699-1.482 32.495-18.609 31.692-36.173z"/></svg>