<svg xmlns="http://www.w3.org/2000/svg" width="400" height="400" viewBox="0 0 300 300" preserveAspectRatio="xMidYMid meet" xmlns:v="https://vecta.io/nano"><path d="M130 4.6c-11.9 2.3-19.8 10.3-22.6 23.2-4.3 20-16.4 31-35.1 32-6.6.4-9.5 0-15.5-1.9-13.4-4.2-24-2.6-32.1 5-1.6 1.4-6 7.9-9.9 14.4-6.5 10.8-7.1 12.3-7.6 18.5-.6 9.7 1.8 14.8 11.9 24.7 11 10.8 13.4 16 13.4 28.5-.1 12.4-2.1 16.7-13.2 27.8-9.9 9.9-11.5 12.6-12.1 21.3-.4 5.6-.1 7.5 2 12 4.1 9 13.7 23.7 17.2 26.4 8 6.1 17.2 7.2 28.9 3.6 9.6-2.9 15.7-3.5 21.9-2.1 16.2 3.8 26.5 14.4 29.8 30.5 2.4 11.5 7.5 18.5 16.5 22.6 3.4 1.6 6.7 1.9 20.5 1.9 14.5 0 17.1-.3 21-2.1 9.1-4.1 13.6-10.4 16.3-22.6 2.1-9.2 4.7-14.4 10.2-19.8 10.7-10.8 25.7-13.8 41.3-8.4 11.5 4 24 1.8 31-5.4 5-5.1 15.9-24.1 17.1-29.7s.3-11.8-2.6-17.4c-.9-1.7-5.1-6.6-9.5-10.8-10.5-10.3-13.2-16-13.3-27.8 0-7.7.3-9.2 3.3-15.3 2.4-4.9 5.1-8.2 9.8-12.4 10.6-9.4 14.5-18.2 12.3-28.2-1.2-5.8-11.5-23.9-16.8-29.5-4.1-4.4-9.6-7.1-16.3-8.1-3.6-.6-6.9-.1-14.3 2-17.5 5-31.2 2.4-41.8-8-5.3-5.3-9.1-12.6-10.6-20.7-1.9-10.8-7.3-18-16.1-22.1-3.8-1.7-6.8-2.1-18.5-2.3-7.7-.1-15.1 0-16.5.2zm31.1 106.7c16 7.7 24.6 22.3 23.7 40.2-.8 15.2-9.6 28.2-23.6 34.8-6.2 2.9-7.5 3.2-16.7 3.2-13.9-.1-19.6-2.4-29.1-11.9-8.1-8.2-11.2-14.6-12.1-25.9-1.4-15.8 7.5-31.9 21.7-39.2 7-3.6 11.3-4.5 21-4.2 7.9.3 10.5.8 15.1 3z"/></svg>