<svg width="28" height="24" viewBox="0 0 28 24" fill="none" xmlns="http://www.w3.org/2000/svg">
<path d="M14.0035 11.0402C13.6739 10.839 13.3289 10.6343 13.2368 10.5852C13.1448 10.5362 12.3332 10.0548 11.4333 9.51545M14.0035 11.0402L11.4333 9.51545M14.0035 11.0402C15.4437 11.9192 16.2952 12.4074 16.5504 12.5004M14.0035 11.0402L16.5504 12.5004M11.4333 9.51545L11.2148 9.87998C11.2148 9.87999 11.2148 9.87999 11.2148 9.87999L11.4333 9.51545ZM16.5504 12.5004L16.4049 12.8997C16.5939 12.9685 16.7799 12.9825 17.0206 12.9594C17.248 12.9376 17.5519 12.8797 17.9871 12.7868L16.5504 12.5004ZM12.3415 2.08578L12.3416 2.08566C12.4389 1.93853 12.5262 1.79579 12.5876 1.68625C12.6186 1.63104 12.6402 1.58927 12.6528 1.56215C12.6622 1.51726 12.6759 1.4827 12.6845 1.46276C12.7011 1.42449 12.7202 1.39167 12.7362 1.36673C12.7683 1.31657 12.807 1.26794 12.8444 1.22488C12.9206 1.13729 13.0191 1.04139 13.1237 0.953324C13.3656 0.749594 13.644 0.618657 13.9489 0.584097C14.2533 0.549604 14.5552 0.61436 14.8399 0.755531L14.84 0.755569C15.0596 0.864537 15.2568 1.01222 15.3852 1.24682C15.508 1.4711 15.5391 1.72376 15.5391 1.98232C15.5391 2.25561 15.5174 2.52602 15.3297 2.79174C15.1689 3.01926 14.9053 3.2105 14.5739 3.43727L14.5739 3.43728C13.8107 3.95952 13.2935 4.5645 13.0745 5.11753L13.0745 5.11753C12.9272 5.48949 12.891 5.69389 12.8966 6.39185C12.8999 6.80969 12.9089 7.00098 12.9404 7.15114C12.969 7.28809 13.0196 7.40621 13.1568 7.67032L13.1568 7.67037C13.3863 8.11239 13.6248 8.42227 13.913 8.65972C14.2023 8.89798 14.5645 9.08214 15.0678 9.24058C15.9945 9.53233 17.2858 9.44362 18.3244 8.99293C18.771 8.79911 19.2213 8.7157 19.6608 8.92303C20.0677 9.11498 20.3708 9.51674 20.6534 10.0185M12.3415 2.08578L17.9871 12.7868C18.7913 12.6153 19.3279 12.4895 19.7012 12.3718C20.0789 12.2528 20.3293 12.1305 20.534 11.946L20.534 11.946C20.7894 11.7158 20.9831 11.4356 20.9922 11.0576C21.0004 10.7176 20.8536 10.374 20.6534 10.0185M12.3415 2.08578C12.2378 2.24263 12.1426 2.39102 12.0725 2.50439M12.3415 2.08578L12.0725 2.50439M20.6534 10.0185L20.2831 10.227L20.6534 10.0185C20.6534 10.0185 20.6534 10.0185 20.6534 10.0185ZM14.8719 6.94679L14.4703 7.08593C14.0705 5.93196 14.3936 4.57426 15.4598 4.12304C15.9068 3.9338 16.3538 3.91774 16.7901 4.16883C17.1857 4.39646 17.5249 4.81898 17.8623 5.3714C18.1586 5.85647 18.3602 6.22304 18.4653 6.53507C18.5799 6.87561 18.5823 7.15743 18.4961 7.45673C18.3056 8.1186 17.7508 8.5344 17.06 8.61255L14.8719 6.94679ZM14.8719 6.94679L14.4703 7.08593C14.8407 8.15492 15.903 8.74352 17.06 8.61255L14.8719 6.94679ZM7.44253 12.4296L7.44252 12.4296C7.31805 12.4685 7.19414 12.5001 7.09164 12.519C7.04205 12.5281 6.98604 12.5365 6.93254 12.539C6.90697 12.5402 6.86748 12.5409 6.82311 12.5349L6.82142 12.5347C6.79616 12.5313 6.67351 12.5151 6.56844 12.4143C6.44003 12.2912 6.43359 12.1403 6.43281 12.1002C6.43167 12.0426 6.4413 11.9943 6.44769 11.967C6.46128 11.909 6.48301 11.853 6.50217 11.8087C6.54253 11.7153 6.60097 11.6069 6.66704 11.5009C6.77834 11.3224 6.99323 10.9557 7.1423 10.6896C7.30515 10.3988 7.57742 10.0242 7.77417 9.84643C7.77418 9.84642 7.77418 9.84642 7.77418 9.84642L8.05908 10.1618L7.44253 12.4296ZM7.44253 12.4296C8.52277 12.0918 9.64033 12.1145 10.4018 12.4415L10.4018 12.4415M7.44253 12.4296L10.4018 12.4415M10.4018 12.4415C10.5998 12.5265 10.8939 12.7406 11.1844 13.0221C11.4733 13.3021 11.7073 13.5992 11.8133 13.8141L11.8133 13.8141M10.4018 12.4415L11.8133 13.8141M11.8133 13.8141C12.1763 14.5498 12.227 15.0126 12.0726 15.5771C11.6967 16.9514 10.6666 18.0744 8.79033 18.9994L8.96927 19.3624M11.8133 13.8141L8.96927 19.3624M8.96927 19.3624L8.79032 18.9994C8.56079 19.1125 8.4117 19.1724 8.28095 19.2067C8.15526 19.2397 8.02941 19.2535 7.84275 19.2535C7.69686 19.2535 7.59772 19.2456 7.52885 19.2326C7.46174 19.22 7.44252 19.2059 7.44226 19.2057C7.44215 19.2056 7.4421 19.2056 7.4421 19.2056C7.4421 19.2056 7.44224 19.2057 7.44245 19.2059C7.4426 19.206 7.44268 19.2061 7.44267 19.2061C7.44266 19.2061 7.44253 19.2059 7.44228 19.2056C7.44147 19.2046 7.43719 19.1988 7.43092 19.1846C7.41687 19.1528 7.39942 19.0938 7.38441 18.9859M8.96927 19.3624L7.38441 18.9859M7.38441 18.9859C7.3642 18.8405 7.3927 18.7861 7.4363 18.7381C7.50745 18.6597 7.66806 18.5557 8.02023 18.4342L8.02029 18.4342C8.65021 18.2167 9.24776 17.8951 9.73387 17.5279C10.2124 17.1665 10.618 16.734 10.8159 16.2798L7.38441 18.9859ZM10.0271 13.6928C10.8568 14.2441 11.212 15.3708 10.8159 16.2798L10.0271 13.6928ZM10.0271 13.6928C9.38434 13.2656 8.54213 13.2505 7.57006 13.5025C6.72767 13.7209 6.15899 13.8752 5.78407 13.9912C5.59724 14.049 5.44858 14.1003 5.33422 14.1484C5.23327 14.1908 5.10817 14.2506 5.01464 14.3444L10.0271 13.6928ZM13.0089 18.163L13.402 18.3246C13.0191 19.2558 12.5811 20.303 12.4287 20.6513C12.2804 20.9901 12.086 21.4637 11.9982 21.6991C11.9024 21.9563 11.747 22.3077 11.6451 22.4911C11.6451 22.4911 11.6451 22.4911 11.6451 22.4911L13.0089 18.163ZM13.0089 18.163L13.402 18.3246C13.4452 18.2196 13.4874 18.1169 13.5287 18.0165M13.0089 18.163L13.5287 18.0165M13.9015 20.271L13.51 20.1056C15.3085 15.8477 15.5743 15.2187 15.6805 14.9706L13.9015 20.271ZM13.9015 20.271L13.51 20.1056C13.3055 20.5898 13.1191 21.0468 12.9833 21.3935C12.9156 21.5664 12.8595 21.7145 12.8198 21.826C12.8001 21.8812 12.7831 21.9313 12.7704 21.9728C12.7642 21.9932 12.7576 22.016 12.7522 22.0386L12.7519 22.0399C12.7487 22.0534 12.7368 22.1029 12.7368 22.1604C12.7368 22.2098 12.7391 22.3297 12.7622 22.4641C12.7824 22.5811 12.8309 22.7909 12.9765 22.9532L13.0175 22.999M13.9015 20.271L13.0175 22.999M13.0175 22.999L13.0699 23.0313M13.0175 22.999L13.0699 23.0313M13.0699 23.0313L13.2156 23.1211L13.2752 23.1578L13.3435 23.1735L13.5151 23.2129L13.558 23.2228M13.0699 23.0313L13.558 23.2228M13.558 23.2228L13.602 23.2236M13.558 23.2228L13.602 23.2236M13.602 23.2236L15.1518 23.2537C15.9981 23.2701 16.5526 23.2671 16.924 23.1928C17.1211 23.1534 17.2982 23.0887 17.4511 22.9744C17.6053 22.8591 17.702 22.7178 17.7751 22.5822L17.7751 22.5822M13.602 23.2236L17.7751 22.5822M17.7751 22.5822C17.9029 22.3452 17.9702 22.0733 17.8632 21.7734C17.7708 21.5147 17.5667 21.296 17.3369 21.0911C17.1601 20.9334 17.1314 20.8519 17.1255 20.8163C17.1194 20.7804 17.1201 20.6931 17.2359 20.4848C17.2851 20.3966 17.3737 20.2941 18.1611 19.9282C18.4226 19.8067 18.6634 19.6966 18.8404 19.6171C18.9292 19.5772 19.0004 19.5457 19.0497 19.5245C19.0693 19.5161 19.0838 19.51 19.0938 19.5059C19.1036 19.503 19.1116 19.5003 19.1164 19.4987C19.1292 19.4943 19.1418 19.4895 19.1516 19.4857C19.1722 19.4776 19.198 19.467 19.2266 19.455C19.2846 19.4307 19.3643 19.3963 19.4593 19.3548C19.6498 19.2715 19.9069 19.157 20.1851 19.0314C20.739 18.7812 21.5058 18.4355 21.889 18.2632L21.8891 18.2632M17.7751 22.5822L21.8891 18.2632M21.8891 18.2632C22.2728 18.0906 22.8824 17.8159 23.2438 17.6526L23.2439 17.6526M21.8891 18.2632L23.2439 17.6526M23.2439 17.6526C23.6049 17.4895 23.9117 17.3081 24.108 17.0778C24.2116 16.9562 24.2913 16.8132 24.3254 16.6475C24.3596 16.4809 24.342 16.3194 24.2931 16.1704L24.2931 16.1703M23.2439 17.6526L24.2931 16.1703M24.2931 16.1703C24.2645 16.0832 24.2069 15.9685 24.1502 15.8617C24.088 15.7444 24.0077 15.6018 23.9166 15.4449C23.7341 15.1307 23.5021 14.749 23.2696 14.378C23.0373 14.0072 22.8023 13.6435 22.6136 13.3654C22.5197 13.227 22.4346 13.1058 22.3657 13.0143C22.3316 12.9692 22.2976 12.926 22.266 12.89C22.2503 12.8722 22.2312 12.8513 22.2098 12.8312C22.1949 12.817 22.1527 12.7776 22.0922 12.7465L22.0921 12.7465M24.2931 16.1703L22.0921 12.7465M22.0921 12.7465C21.9073 12.6516 21.6861 12.6233 21.4863 12.6232C21.2772 12.623 21.0478 12.654 20.8196 12.7122M22.0921 12.7465L20.8196 12.7122M23.853 19.0712L23.7166 18.6687C23.9363 18.5942 24.2395 18.5842 24.4933 18.5983C24.754 18.6127 25.0526 18.6578 25.2745 18.7466L25.2746 18.7467C25.7435 18.9345 26.1272 19.2126 26.3928 19.5861C26.6596 19.9615 26.7881 20.4066 26.7881 20.8947C26.7881 22.062 26.0385 22.9468 24.8848 23.1764M23.853 19.0712L22.7839 22.301C22.3748 22.0976 21.6009 21.7158 21.064 21.4527M23.853 19.0712L23.7166 18.6687C23.5447 18.727 22.834 19.0416 21.5683 19.6151L21.7381 19.9899L21.5683 19.6151C21.3619 19.7086 21.1682 19.793 21.023 19.8535C20.95 19.8839 20.8921 19.9071 20.8523 19.9221C20.8431 19.9256 20.8356 19.9283 20.8299 19.9303M23.853 19.0712L20.2859 21.0685C20.4644 21.1612 20.719 21.2836 21.064 21.4527M24.8848 23.1764L24.8018 22.7596L24.8848 23.1764C24.8848 23.1764 24.8848 23.1764 24.8848 23.1764ZM24.8848 23.1764C24.5254 23.248 24.2084 23.2628 23.836 23.1782C23.4822 23.0978 23.097 22.9314 22.5947 22.6815L22.5946 22.6815C22.1865 22.4786 21.4133 22.0972 20.8769 21.8343M20.8769 21.8343C20.8769 21.8343 20.877 21.8343 20.877 21.8343L21.064 21.4527M20.8769 21.8343L21.064 21.4527M20.8769 21.8343C20.7911 21.7922 20.7102 21.7527 20.6341 21.7156C20.4119 21.6071 20.2317 21.5191 20.0946 21.448C20.0022 21.4001 19.9192 21.3547 19.8506 21.3113C19.7894 21.2727 19.7056 21.2151 19.6399 21.136C19.5652 21.0461 19.4685 20.8652 19.55 20.6473C19.6102 20.4861 19.7395 20.4026 19.7837 20.3746C19.8623 20.325 19.9826 20.2718 20.0855 20.2263C20.113 20.2142 20.1392 20.2026 20.1631 20.1918L20.1632 20.1917C20.3081 20.126 20.4491 20.0655 20.5607 20.0208C20.6159 19.9986 20.6676 19.9788 20.7104 19.9639C20.7315 19.9566 20.7551 19.9489 20.7783 19.9424L20.7797 19.942C20.7856 19.9403 20.8041 19.935 20.8299 19.9303M20.8299 19.9303C20.8229 19.9328 20.8184 19.9343 20.816 19.9351C20.8152 19.9353 20.815 19.9354 20.8155 19.9352C20.8164 19.935 20.8201 19.9339 20.8257 19.9325C20.8299 19.9315 20.8386 19.9294 20.8502 19.9275C20.8595 19.9259 20.8839 19.9221 20.916 19.9221C20.8839 19.9221 20.8537 19.926 20.8299 19.9303ZM12.0725 2.50439C12.0378 2.56055 12.0074 2.61114 11.9847 2.65107M12.0725 2.50439L11.9847 2.65107M11.9847 2.65107C11.9738 2.67034 11.9618 2.69214 11.9515 2.71312M11.9847 2.65107L11.9515 2.71312M11.9515 2.71312C11.9466 2.72302 11.9388 2.73926 11.9313 2.75845M11.9515 2.71312L11.9313 2.75845M11.9313 2.75845C11.9302 2.76114 11.929 2.76435 11.9277 2.76801L11.9313 2.75845ZM4.87746 14.5232C4.91184 14.4725 4.9654 14.3938 5.01457 14.3445L4.87746 14.5232ZM4.87746 14.5232C4.83189 14.5904 4.77426 14.6789 4.70724 14.7839M4.87746 14.5232L4.70724 14.7839M4.70724 14.7839C4.57284 14.9945 4.39498 15.2808 4.18935 15.6163M4.70724 14.7839L4.18935 15.6163M4.18935 15.6163C3.77779 16.2878 3.25119 17.1624 2.73077 18.0366M4.18935 15.6163L2.73077 18.0366M2.73077 18.0366C2.21036 18.9108 1.69523 19.786 1.30664 20.4587M2.73077 18.0366L1.30664 20.4587M1.30664 20.4587C1.11252 20.7947 0.948983 21.0819 0.831902 21.2937M1.30664 20.4587L0.831902 21.2937M0.831902 21.2937C0.773572 21.3992 0.725253 21.4888 0.690017 21.5575M0.831902 21.2937L0.690017 21.5575M0.690017 21.5575C0.672573 21.5915 0.656517 21.6239 0.64354 21.6523M0.690017 21.5575L0.64354 21.6523M0.64354 21.6523L0.642543 21.6545M0.64354 21.6523L0.642543 21.6545M0.642543 21.6545C0.634877 21.6712 0.610186 21.7249 0.597963 21.7836L0.642543 21.6545ZM13.5287 18.0165C14.4067 15.8812 14.8594 14.7802 15.047 14.1788M13.5287 18.0165L15.047 14.1788M15.047 14.1788C15.1409 13.8776 15.1994 13.6148 15.1518 13.3836M15.047 14.1788L15.1518 13.3836M15.1518 13.3836C15.1016 13.1402 14.9415 12.9925 14.867 12.9238M15.1518 13.3836L14.867 12.9238M14.867 12.9238C14.8595 12.9168 14.8529 12.9107 14.8473 12.9054M14.867 12.9238L14.8473 12.9054M14.8473 12.9054C14.7051 12.769 14.3639 12.5376 14.0924 12.3778L14.8473 12.9054ZM20.8196 12.7122C20.6854 12.7463 19.9524 12.8852 19.1777 13.0211M20.8196 12.7122L19.1777 13.0211M19.1777 13.0211C18.4102 13.1557 17.4996 13.3326 17.1535 13.4153M19.1777 13.0211L17.1535 13.4153M17.1535 13.4153C17.1415 13.4182 17.1295 13.4211 17.1175 13.4239M17.1535 13.4153L17.1175 13.4239M17.1175 13.4239C16.8701 13.4828 16.6338 13.539 16.452 13.6685M17.1175 13.4239L16.452 13.6685M16.452 13.6685C16.2533 13.81 16.1473 14.0166 16.0512 14.2038M16.452 13.6685L16.0512 14.2038M16.0512 14.2038C16.0467 14.2126 16.0422 14.2214 16.0377 14.2301M16.0512 14.2038L16.0377 14.2301M16.0377 14.2301C15.9083 14.4815 15.7481 14.8128 15.6806 14.9705L16.0377 14.2301ZM20.2377 21.0932C20.2385 21.0927 20.2397 21.092 20.2412 21.0912C20.2337 21.0966 20.2314 21.0972 20.2377 21.0932ZM14.0923 12.3778C13.8244 12.2201 13.5226 12.0426 13.4213 11.9832L14.0923 12.3778Z" stroke="white" stroke-width="0.85"/>
</svg>
