<svg xmlns="http://www.w3.org/2000/svg" width="100%" viewBox="0 0 752 752" height="150" xmlns:v="https://vecta.io/nano"><path d="M1 332.469c3.11-16.439 5.494-32.592 9.466-48.345 11.442-45.378 30.786-87.177 58.516-125.005 42.309-57.717 96.305-100.499 162.729-127.365 30.233-12.228 61.642-19.994 93.962-24.199 23.398-3.044 46.858-2.077 70.291-.963 19.942.948 39.794 3.061 59.183 8.14 62.644 16.41 118.744 44.852 166.246 89.551 51.401 48.368 86.678 106.384 105.162 174.417 8.303 30.559 12.543 61.676 13.131 93.572.904 49.102-7.622 96.202-26.747 141.109-5.972 14.023-4.28 23.554 5.186 34.697 14.866 17.5 21.302 38.757 23.328 61.544 1.957 22.018-.404 43.313-10.107 63.271-19.97 41.077-51.578 66.722-97.667 73.661-32.984 4.965-62.739-2.228-89.997-20.898-3.974-2.722-7.805-5.741-11.304-9.044-4.136-3.904-8.313-4.009-13.246-1.835-18.616 8.202-37.759 14.879-57.514 19.836-33.445 8.393-67.378 12.757-101.841 11.386-83.794-3.332-159.27-29.829-224.266-83.397C77.036 614.41 36.215 554.156 14.578 481.131c-6.457-21.793-10.334-43.968-13.451-66.759L1 332.469m654.628-140.634c-13.731-21.833-30.008-41.657-48.473-59.576-36.521-35.441-79-61.266-126.944-78.476-35.718-12.821-72.587-18.035-110.221-18.177-16.247-.061-32.551 1.029-48.732 3.562-39.135 6.126-76.433 17.543-111.402 36.421-28.926 15.616-55.477 34.482-78.785 57.616-23.635 23.459-43.807 49.627-59.765 79.033-22.358 41.199-36.61 84.867-40.812 131.585-2.453 27.269-1.3 54.514 2.837 81.619 5.547 36.338 16.572 71.012 33.146 103.707 18.145 35.794 42.08 67.484 71.421 94.999 28.486 26.712 60.794 47.671 96.52 63.204 44.894 19.52 91.894 28.14 140.934 27.643 40.497-.41 79.27-8.232 116.965-22.35 14.375-5.384 14.872-4.152 7.963-19.041-9.6-20.688-13.899-42.56-11.246-65.097 3.29-27.954 14.239-52.923 34.003-73.476 24.981-25.978 55.461-40.034 91.606-40.07 21.176-.021 41.629 4.44 60.448 14.9 5.136 2.855 6.029 2.456 8.122-2.893 14.131-36.113 24.831-73.079 26.352-112.122 1.183-30.373-1.213-60.5-7.443-90.301-8.413-40.24-24.161-77.437-46.492-112.712m12.363 510.656c32.869-22.85 48.668-54.261 43.302-94.012-8.258-61.165-63.812-89.131-109.635-82.425-47.847 7.003-81.806 47.491-83.038 94.943-.426 16.399 4.49 32.267 12.374 46.814 25.519 47.086 88.545 65.721 136.998 34.679z"/><path d="M168.401 546.271c33.204-14.065 65.853-28.418 95.446-48.681 9.201-6.301 18.033-13.163 26.823-20.037 7.132-5.577 9.103-14.79 5.75-23.989-5.41-14.84-13.273-28.288-22.601-40.991-8.338-11.354-15.007-23.521-17.638-37.665-2.112-11.353-1.536-22.605.85-33.692 2.547-11.834 3.618-23.76 2.828-35.713-3.467-52.459 38.41-98.211 87.62-108.001 16.793-3.341 33.557-5.181 49.678 1.191 15.046 5.948 30.342 10.941 45.684 15.964 16.902 5.534 24.162 19.457 28.373 35.382 2.982 11.28 3.582 22.958 5.026 34.49 2.125 16.969 3.506 34.066 6.455 50.889 4.846 27.648.518 52.889-16.268 75.78-9.089 12.394-16.514 25.802-22.614 39.934-5.759 13.342-4.239 19.62 7.357 28.473 16.146 12.327 31.804 25.35 50.043 34.688 4.596 2.353 4.797 4.853.968 9.211-17.119 19.486-28.007 42.14-33.14 67.374-4.52 22.219-4.73 44.589 1.257 66.723 1.348 4.984.43 7.142-4.609 8.609-24.62 7.165-49.377 13.275-75.254 14.353-17.853.744-35.655.719-53.433-.385-14.628-.909-28.847-4.837-43.002-8.384-46.576-11.67-87.706-33.807-123.714-65.577-10.52-9.282-20.333-19.224-29.67-29.669-4.931-5.516-4.871-7.164.379-12.495 7.741-7.861 17.157-13.109 27.407-17.783zm418.31 37.44l24.643-24.585c4.777-4.685 7.008-4.612 11.735.102l39.517 39.587c1.566 1.577 4.106 3.057 2.998 5.773-1.125 2.758-3.941 2.656-6.467 2.657a2137.78 2137.78 0 0 1-11.986-.039c-7.138-.039-7.816.588-7.82 7.581l.001 56.435c-.008 8.111-1.106 9.193-9.264 9.205a4172.21 4172.21 0 0 1-26.968-.061c-6.63-.033-8.31-1.606-8.317-8.217l.095-54.935c.014-9.632-.43-10.033-10.268-9.94-3.496.033-6.994.086-10.487-.01-2.149-.059-4.531-.094-5.439-2.605-.831-2.3.875-3.673 2.299-5.102l15.727-15.845z"/></svg>