<svg xmlns="http://www.w3.org/2000/svg" width="400" height="346.667" viewBox="0 0 300 260" preserveAspectRatio="xMidYMid meet" xmlns:v="https://vecta.io/nano"><path d="M146.5 2.6c-4.2 2.1-8.1 6.1-10.3 10.3-2 3.9-16.9 28.6-26.9 44.9C101.9 69.7 96 81.6 96 84.5c.1 4.4 3.9 10.3 9.2 14.3 5.7 4.3 59 36.4 69.6 41.9 7.6 4 9.6 4 25.4.7 22.3-4.6 27-6.6 31.5-13.3 4.8-7.1 1.3-19.6-8-29-5.7-5.8-10.3-7-18.1-4.7-20.2 5.8-19.9 5.8-28.6 5.3-15.5-.9-25.3-6.5-30.9-17.9-2.7-5.2-3.1-7.2-3.1-13.8 0-4.4.7-9.6 1.6-12.3 2-5.9 8.6-13.3 18-20.2 8.6-6.4 11.1-11.2 10.1-19.7-.8-6.2-2.9-9.5-8.3-12.5-4.7-2.7-13.4-3.1-17.9-.7zm12.9 5.8c4.4 1.8 6.6 5.2 6.6 10.1 0 5.2-1.5 7.3-9.4 12.9-8.1 5.8-14.2 12.6-17.5 19.6-2.3 4.9-2.6 6.7-2.6 16.5 0 10.6.1 11.2 3.3 17 5.8 10.6 12 15.9 23 19.7 5.4 1.9 8.7 2.3 17.2 2.2 9-.1 11.8-.5 19.8-3.2 10.9-3.7 13.4-3.9 17.2-1.2 3.4 2.4 8.8 10.6 10.1 15.4 1.7 6.2-2.3 11-11.5 13.8-7.5 2.2-26 5.8-29.9 5.8-3.8 0-8.1-2.3-36.7-19.3l-37.2-22.5c-5.4-3.7-8.8-7.7-8.8-10.4 0-2.4 3.8-9.9 10.6-20.9l8.8-14.5c23.6-41 27.3-45.1 37-41zm8.8 32.7c-8.9 4.4-13.8 14.2-13 25.8 1.3 17.8 13.5 28.9 30.6 27.9 8.4-.4 13.7-3.1 17.7-8.7 2.6-3.6 3-5.2 3-10.4 0-5.4-.6-7.3-4.5-14.5-5.1-9.6-12.4-18.2-17.4-20.6-4.7-2.2-11.3-2-16.4.5zm15.4 6.8c3.4 2.1 11.2 13.2 14.5 20.7 5 11.1-1.3 19.8-14.2 19.7-13.1-.2-21.9-9.7-21.9-23.5.1-14 11.6-23 21.6-16.9zm-98.1 55c-4.1 2.5-7.4 6.5-13.5 16.6-6.2 10.2-7.1 14.4-4.1 17.4 2.5 2.5 6.1 2.7 14 .7 12.4-3.1 24-2.8 31.2.9 7.6 4 15.9 15.5 17.3 24.1 1.3 7.3-3.9 19.4-12.1 28.5-7.7 8.5-27.2 19.9-34 19.9-4.2 0-4.5-2.6-.5-4.1C108.5 197 121 185 121 171.2c0-7.9-1.8-12.8-6.7-18.2-8.5-9.5-19.7-10.8-40.8-5.1-21.2 5.8-21.7 6.1-27.3 14.9-7.2 11.3-26.5 43.4-36.6 61C1.7 237.5.8 239.6.8 244.1c0 5.5 1.7 8.7 6.4 12.2 2.8 2.1 11.5 3.4 14.5 2.2 2.3-.9 82.2-.9 84.6 0 .9.4 4.7.5 8.2.3 11.3-.7 11.4-.8 27.4-39.3 17.6-42.2 25.9-63.7 26.6-68.5.7-5.6-1.4-9.5-7.7-13.8-7.2-5-53.9-31.4-59.8-33.9-6.7-2.7-11.5-2.9-15.5-.4zm40.5 21.7c15.5 8.8 29.9 17.4 32.2 19.3 3.5 3 3.9 3.8 3.5 6.7-1.3 7.9-37.8 95.9-41.3 99.4l-2.4 2.5H65.5 13.1l-3-2.9c-1.8-1.7-3.1-4-3.1-5.4 0-3.5 44.8-79.8 48.9-83.3 1-.8 8.3-3.3 16.2-5.5 18.5-5 27.4-5.3 33.7-1.1 6.7 4.4 10.2 13.2 8.2 20.7-2.2 8.1-14 18.1-28.1 23.6-8.9 3.5-11.9 6.2-11.9 10.7 0 1.9.9 4.5 1.9 5.8 2.9 3.5 12.5 3.3 20.3-.4 31.1-15 46.8-39.9 38.6-61.3-2.9-7.6-12-17.4-19.6-21.1-9.3-4.6-28.3-4.4-40.7.3-.8.3-1.5.2-1.5-.4 0-1.9 10.1-18.1 13.2-21.3 5.3-5.2 7.7-4.4 39.8 13.7zm82.2 16.9c-29.6 5.9-29.2 5.7-34.4 15.9-4.1 8.1-33.3 77.3-35.3 83.8-1.4 4.3-1.5 6.1-.6 9.5 1.8 6.5 4.8 8.3 14.2 8.3 4.3 0 8-.4 8.4-.9.6-1.1 20.5-1 20.5.1 0 .5 1.9.8 4.3.8 5.9 0 10.4-3 12.9-8.6 2.6-6.1 1.8-9.9-3.3-15.8-2.4-2.7-3.9-5.2-3.5-6.1.7-1.9 3.7-3.4 36.8-18.1 35.4-15.8 36.8-16.5 40.6-20.9 5.2-5.9 4.6-9.8-3.6-23.6-15.6-26.1-19.2-30.1-27.4-29.8-1.8.1-15.1 2.5-29.6 5.4zm36.6 5.2c1.6 2.1 5.3 7.6 8.2 12.3 14 22.3 14.5 24.3 8.3 28.4-2.1 1.4-17.1 8.4-33.3 15.6-35.8 16-40.7 18.5-42.6 22.1-2.4 4.7-1.7 7.5 3.1 12.9 5.1 5.8 5.5 7.7 2.1 11.7l-2.4 2.8-20.2.3c-18 .3-20.4.1-22.1-1.4-3.7-3.3-4.1-2.1 17.6-53.4 16.8-39.8 18.8-43.8 22.2-45.1 1.4-.5 12.5-2.8 24.7-5l22.5-4.5c.2-.2 2.3-.4 4.7-.4 3.7 0 4.6.5 7.2 3.7zm20.2 57.2c-1.9.4-9.3 3.4-16.5 6.5-7.1 3.2-16.8 7.4-21.5 9.3-10.1 4.1-13 6.5-13 10.8 0 4.9 3.6 7.4 26 18.1l20.5 9.9 8.8.4c8.2.3 9.3.1 15.2-2.8 10.3-5.1 14.5-12.3 14.5-24.8 0-9.2-1.9-14-7.6-19.5-6.6-6.3-17.7-9.6-26.4-7.9zm17.7 9.7c2.4 1.4 5.6 4.4 7.1 6.6 2.3 3.6 2.7 5.2 2.7 11.4 0 6.4-.3 7.7-3 11.6-4.6 6.4-10.4 9.3-19.1 9.3-6.9 0-7.3-.1-28.8-10.7-11.9-5.9-21.5-11.2-21.2-11.6.3-.5 2.7-1.7 5.3-2.7 2.6-.9 12.2-5 21.3-9l18-7.8c3.2-1.4 13.3.3 17.7 2.9z"/></svg>