<svg xmlns="http://www.w3.org/2000/svg" width="400" height="344" viewBox="0 0 300 258" preserveAspectRatio="xMidYMid meet"
    xmlns:v="https://vecta.io/nano">
    <path d="M149 1.9c-3.6 1.8-4.6 3.1-11.3 14.3-2 3.5-6 10.1-8.8 14.8-2.9 4.7-6.3 10.5-7.7 13s-4.5 7.5-6.9 11.3C107.1 66.6 101 78.5 101 81.4c0 1.9 1.2 4 3.8 6.6 3 3 64.2 40.4 75.9 46.4 4.6 2.3 9.7 2 25-1.5 15.6-3.6 19.6-5.1 22.9-8.6 3.6-3.9 3.2-8.6-1.5-16.4-3.9-6.6-8.9-10.9-12.4-10.9-1.1 0-6.1 1.4-11.1 3.2-7.1 2.4-11.3 3.2-19.1 3.6-22.2 1-37-6.6-45.5-23.3-3.2-6.3-3.2-6.4-2.8-18.7.3-10.9.7-12.9 3-17.3 3.5-6.8 9.8-13.7 17.2-19 8.1-5.8 9.7-7.6 10.3-12.2.6-5.1-1-8.9-4.9-11.3-4.1-2.5-8.3-2.5-12.8-.1zm23.3 40c-10.5 4.8-13.3 22.9-5.2 34.1 5.9 8.1 19.2 11.5 27.9 7 8.4-4.3 9.3-12.6 2.6-24.2-5.8-10.2-9.9-15.2-14-17.2-4.3-2-6.1-2-11.3.3zm-86.9 65c-3.1 1.9-7.3 7.8-13.4 18.5l-3.3 5.9 2.9-.6c1.6-.3 6.3-1.3 10.4-2.2 9.6-2.2 21.2-1.6 29.4 1.5 7.2 2.8 18.1 13.1 21.5 20.4 5.5 11.9 5.1 20.3-1.5 33.5-6.2 12.5-17.6 22.9-34.6 31.6-7.8 4.1-10 4.8-15.4 4.9-7.9.1-10.6-1.9-10.8-8.4-.1-5.3 2.5-7.7 12.3-11.4 17.3-6.7 30-19 30.1-29.2 0-7.5-4.9-15.6-11.4-18.5-6.7-3-15-2.5-31.9 2.1-8.1 2.2-15.7 4.5-16.8 5-2.4 1.3-6 6.9-24.6 38C7.4 232.8 0 246.1 0 248.5c0 2.7 4.4 7.3 7.9 8.3 4.7 1.3 105.3.8 108.3-.5 3.5-1.6 5.2-4.2 10.5-17 30.8-74.1 35.3-85.5 35.3-90.2 0-1.7-1-3.7-2.7-5.4-2.5-2.3-48.6-29.2-60.3-35.2-6.8-3.4-10-3.8-13.6-1.6zM230.5 144l-25.5 5c-9.1 1.7-17.5 3.8-18.7 4.6-3.1 1.9-5.3 6.5-19.9 41.2-19.8 46.6-22.4 53.2-22.4 56.7 0 5.7 1.1 6 24.2 6h21l2.9-3.3c1.6-1.8 2.9-4.1 2.9-5.2s-2-4.2-4.5-7c-5.1-5.7-5.8-9.4-2.7-14.5 2.2-3.5 5.7-5.3 38.7-20 43.5-19.4 45.5-20.6 44.1-25.9-1.4-5.8-21.2-36.8-24.5-38.6-2.6-1.3-4.8-1.2-15.6 1zm23.5 76.3l-23.2 10.1c-3.8 1.6-6.8 3.2-6.8 3.8 0 1.4 41.7 21.6 47.1 22.7 9.8 2.1 20.3-2.2 25.4-10.3 2.6-4.2 3-5.9 3-11.5-.1-13.3-9.2-22.1-23-22.1-5.3.1-8 .9-22.5 7.3z"/>
</svg>