<svg width="25" height="25" viewBox="0 0 25 25" fill="none" xmlns="http://www.w3.org/2000/svg">
<path d="M22.949 11.3284L20.724 7.63773C20.5612 7.36973 20.3323 7.14799 20.0593 6.9937C19.7863 6.83941 19.4782 6.75774 19.1646 6.75648H17.4178V6.4971C17.4178 6.12253 17.3438 5.75164 17.2001 5.40574C17.0564 5.05983 16.8457 4.74573 16.5803 4.48148C16.0436 3.94674 15.317 3.64636 14.5594 3.64606H4.16048C3.5945 3.64231 3.04028 3.80754 2.56875 4.1206C2.09722 4.43365 1.72983 4.88029 1.5136 5.40335C1.37054 5.75011 1.29829 6.12199 1.3011 6.4971V15.8284C1.30169 16.2666 1.46104 16.6898 1.74966 17.0196C2.03827 17.3494 2.4366 17.5634 2.8709 17.6221C2.86604 17.7159 2.86604 17.8093 2.8709 17.9023C2.86719 18.3441 2.95275 18.7821 3.12244 19.19C3.29213 19.598 3.54245 19.9674 3.8584 20.2763C4.16843 20.599 4.53954 20.8568 4.95013 21.0347C5.36073 21.2126 5.80261 21.3071 6.25006 21.3127C7.14312 21.3046 7.99751 20.9472 8.63027 20.3169C9.26245 19.6876 9.62166 18.8349 9.63027 17.9429C9.63562 17.8569 9.63562 17.7706 9.63027 17.6846H15.3688C15.3635 17.7706 15.3635 17.8569 15.3688 17.9429C15.365 18.3849 15.4505 18.8231 15.6201 19.2312C15.7898 19.6393 16.0402 20.009 16.3563 20.3179C16.6666 20.6409 17.038 20.8988 17.449 21.0768C17.86 21.2547 18.3023 21.3491 18.7501 21.3544C19.6431 21.3463 20.4975 20.9888 21.1303 20.3586C21.7621 19.7291 22.1209 18.8764 22.1292 17.9846C22.1346 17.8982 22.1346 17.8116 22.1292 17.7252H22.9167C23.1222 17.7223 23.3185 17.6396 23.4641 17.4946C23.6097 17.3495 23.6932 17.1536 23.6969 16.9481V13.9523C23.6969 13.0252 23.4376 12.1169 22.949 11.3284ZM8.05944 17.9013C8.05975 18.1394 8.01203 18.3751 7.91914 18.5944C7.82625 18.8136 7.69009 19.0119 7.51881 19.1773C7.17227 19.5066 6.71248 19.6902 6.23444 19.6902C5.75639 19.6902 5.29661 19.5066 4.95006 19.1773C4.78115 19.0088 4.64739 18.8083 4.55655 18.5877C4.46571 18.367 4.4196 18.1305 4.4209 17.8919C4.416 17.6455 4.46581 17.4011 4.56673 17.1763C4.70423 16.8502 4.94069 16.5752 5.24173 16.3877C5.54963 16.1842 5.91232 16.0795 6.28131 16.0877C6.6334 16.0877 6.97715 16.1919 7.26881 16.3877C7.56777 16.5784 7.80319 16.8523 7.9459 17.1763C8.04798 17.4002 8.10215 17.645 8.1011 17.8919L8.05944 17.9013ZM11.4386 12.7179H6.24069C5.9655 12.7177 5.7016 12.6085 5.50663 12.4143C5.31165 12.2201 5.20144 11.9567 5.20006 11.6815C5.19979 11.545 5.2265 11.4098 5.27868 11.2836C5.33085 11.1575 5.40745 11.0429 5.50406 10.9465C5.60068 10.8501 5.71541 10.7737 5.84165 10.7218C5.96789 10.6699 6.10315 10.6434 6.23965 10.644H11.4386C11.7138 10.6445 11.9776 10.7539 12.1724 10.9483C12.3671 11.1427 12.4771 11.4063 12.4782 11.6815C12.4783 11.8179 12.4515 11.953 12.3993 12.079C12.347 12.205 12.2704 12.3195 12.1738 12.4158C12.0772 12.5121 11.9625 12.5884 11.8364 12.6402C11.7102 12.6921 11.575 12.7185 11.4386 12.7179ZM11.4386 9.15127H6.24069C5.9655 9.151 5.7016 9.04184 5.50663 8.84765C5.31165 8.65345 5.20144 8.38999 5.20006 8.11481C5.19992 7.9784 5.22674 7.8433 5.27898 7.71729C5.33121 7.59127 5.40783 7.47682 5.50443 7.38051C5.60103 7.28419 5.71572 7.20792 5.84189 7.15607C5.96806 7.10421 6.10324 7.0778 6.23965 7.07835H11.4386C11.7136 7.0789 11.9772 7.18817 12.172 7.38234C12.3667 7.5765 12.4768 7.83981 12.4782 8.11481C12.4783 8.25122 12.4515 8.38632 12.3993 8.51233C12.347 8.63835 12.2704 8.7528 12.1738 8.84911C12.0772 8.94542 11.9625 9.0217 11.8364 9.07355C11.7102 9.12541 11.575 9.15182 11.4386 9.15127ZM20.5365 17.9013C20.5367 18.1395 20.4888 18.3752 20.3957 18.5945C20.3027 18.8138 20.1663 19.012 19.9949 19.1773C19.6484 19.5063 19.1888 19.6897 18.711 19.6897C18.2332 19.6897 17.7736 19.5063 17.4271 19.1773C17.258 19.0088 17.1241 18.8085 17.0331 18.5878C16.9421 18.3671 16.8958 18.1306 16.8969 17.8919C16.8925 17.5142 17.0134 17.1457 17.2407 16.844C17.4969 16.5034 17.8646 16.2606 18.2803 16.1596H18.5407C18.5883 16.1483 18.6379 16.1483 18.6855 16.1596H18.8938C19.2094 16.1961 19.5105 16.3138 19.7667 16.5023C20.024 16.6909 20.2251 16.945 20.349 17.2388C20.4521 17.4627 20.5053 17.7075 20.5053 17.9534L20.5365 17.9013Z" fill="white"/>
<path d="M18.7083 16.077C18.6604 16.0655 18.6104 16.0655 18.5625 16.077H18.7083Z" fill="white"/>
<path d="M17.7537 7.72949H19.3237L21.558 10.5677V12.6812H17.7537V7.72949Z" fill="#3E89EC"/>
</svg>
