<svg width="25" height="25" viewBox="0 0 25 25" fill="none" xmlns="http://www.w3.org/2000/svg">
<path d="M16.6666 16.4168V6.51058C16.6666 5.95804 16.4471 5.42814 16.0564 5.03744C15.6657 4.64674 15.1358 4.42725 14.5833 4.42725H4.16659C3.61405 4.42725 3.08415 4.64674 2.69345 5.03744C2.30275 5.42814 2.08325 5.95804 2.08325 6.51058V15.8856C2.08325 16.1618 2.193 16.4268 2.38835 16.6221C2.5837 16.8175 2.84865 16.9272 3.12492 16.9272H3.8645C4.06756 16.4636 4.40131 16.0692 4.82496 15.7923C5.24861 15.5153 5.74378 15.3678 6.24992 15.3678C6.75606 15.3678 7.25123 15.5153 7.67488 15.7923C8.09853 16.0692 8.43228 16.4636 8.63534 16.9272H16.3645C16.4409 16.7432 16.5416 16.5731 16.6666 16.4168ZM16.6666 16.4168C16.9373 16.0496 17.3001 15.7603 17.7183 15.5781C18.1365 15.3959 18.5954 15.3272 19.0487 15.379C19.5019 15.4307 19.9335 15.6011 20.2998 15.873C20.6662 16.1448 20.9544 16.5085 21.1353 16.9272H22.9166V13.9168C22.917 13.1609 22.7117 12.4192 22.3228 11.771L21.0416 9.63558L20.0937 8.06266C20.0015 7.90717 19.8704 7.77834 19.7133 7.68885C19.5563 7.59935 19.3786 7.55228 19.1978 7.55225H16.6666V16.4168Z" stroke="white" stroke-width="1.5625" stroke-linecap="round" stroke-linejoin="round"/>
<path d="M11.4583 11.7187H6.24992M11.4583 8.59375H6.24992M8.85408 17.9687C8.85454 18.3561 8.76856 18.7388 8.6024 19.0887C8.43625 19.4387 8.19411 19.7472 7.89363 19.9917C7.59315 20.2362 7.2419 20.4106 6.86548 20.5022C6.48906 20.5938 6.09695 20.6002 5.71773 20.521C5.3385 20.4419 4.98172 20.2791 4.67338 20.0445C4.36503 19.81 4.1129 19.5096 3.93535 19.1653C3.7578 18.821 3.65931 18.4414 3.64706 18.0542C3.6348 17.667 3.70908 17.2819 3.8645 16.9271C4.1043 16.3796 4.52515 15.9312 5.05641 15.6572C5.58767 15.3833 6.197 15.3005 6.78211 15.4226C7.36723 15.5448 7.89251 15.8645 8.26979 16.3281C8.64707 16.7917 8.85338 17.371 8.85408 17.9687ZM21.3541 17.9687C21.3545 18.3561 21.2686 18.7388 21.1024 19.0887C20.9362 19.4387 20.6941 19.7472 20.3936 19.9917C20.0931 20.2362 19.7419 20.4106 19.3655 20.5022C18.9891 20.5938 18.5969 20.6002 18.2177 20.521C17.8385 20.4419 17.4817 20.2791 17.1734 20.0445C16.865 19.81 16.6129 19.5096 16.4354 19.1653C16.2578 18.821 16.1593 18.4414 16.1471 18.0542C16.1348 17.667 16.2091 17.2819 16.3645 16.9271C16.4409 16.7431 16.5416 16.5729 16.6666 16.4167C16.9373 16.0495 17.3001 15.7602 17.7183 15.5779C18.1365 15.3957 18.5954 15.327 19.0487 15.3788C19.5019 15.4306 19.9335 15.601 20.2998 15.8728C20.6662 16.1446 20.9544 16.5083 21.1353 16.9271C21.2812 17.2552 21.3562 17.6104 21.3541 17.9687Z" stroke="white" stroke-width="1.5625" stroke-linecap="round" stroke-linejoin="round"/>
</svg>
