<svg width="18" height="17" viewBox="0 0 18 17" fill="none" xmlns="http://www.w3.org/2000/svg">
<path d="M9.12516 4.95833C9.32585 4.95833 9.4942 4.89033 9.6302 4.75433C9.7662 4.61833 9.83396 4.45022 9.83349 4.25C9.83302 4.04978 9.76502 3.88167 9.62949 3.74567C9.49396 3.60967 9.32585 3.54167 9.12516 3.54167C8.92446 3.54167 8.75635 3.60967 8.62082 3.74567C8.4853 3.88167 8.4173 4.04978 8.41682 4.25C8.41635 4.45022 8.48435 4.61857 8.62082 4.75504C8.7573 4.89151 8.92541 4.95928 9.12516 4.95833ZM11.1262 4.95833H12.3658C12.7199 4.95833 13.0269 5.07639 13.2866 5.3125C13.5463 5.54861 13.7057 5.83785 13.7647 6.18021L14.7741 13.2635C14.8331 13.6885 14.7241 14.0635 14.4469 14.3884C14.1697 14.7133 13.8124 14.8755 13.3752 14.875H4.87516C4.43835 14.875 4.08112 14.7128 3.80345 14.3884C3.52578 14.064 3.4167 13.689 3.4762 13.2635L4.48557 6.18021C4.5446 5.83785 4.70398 5.54861 4.9637 5.3125C5.22342 5.07639 5.53037 4.95833 5.88453 4.95833H7.12412C7.0887 4.84028 7.05919 4.72529 7.03557 4.61338C7.01196 4.50146 7.00016 4.38033 7.00016 4.25C7.00016 3.65972 7.20675 3.15799 7.61995 2.74479C8.03314 2.3316 8.53488 2.125 9.12516 2.125C9.71544 2.125 10.2172 2.3316 10.6304 2.74479C11.0436 3.15799 11.2502 3.65972 11.2502 4.25C11.2502 4.37986 11.2384 4.50099 11.2147 4.61338C11.1911 4.72576 11.1616 4.84075 11.1262 4.95833Z" fill="#3E89EC"/>
<path d="M7.79411 12L6.26737 9.81895L7.79411 7.87368H8.67832L7.13979 9.81895L8.67832 12H7.79411ZM5.45389 12V7.87368H6.20842V12H5.45389ZM11.647 12.0825C11.2108 12.0825 10.8374 11.9941 10.527 11.8173C10.2165 11.6385 9.97875 11.3879 9.8137 11.0657C9.64864 10.7434 9.56612 10.3652 9.56612 9.93095C9.56612 9.50063 9.65749 9.12533 9.84022 8.80505C10.0249 8.48281 10.2794 8.23326 10.6036 8.05642C10.9278 7.87958 11.3011 7.79116 11.7236 7.79116C11.9417 7.79116 12.15 7.81375 12.3484 7.85895C12.5489 7.90414 12.7198 7.96211 12.8613 8.03284L12.7788 8.752C12.6314 8.68323 12.4683 8.62723 12.2895 8.584C12.1126 8.53881 11.924 8.51621 11.7236 8.51621C11.4171 8.51621 11.1656 8.57811 10.9691 8.70189C10.7726 8.82372 10.6272 8.99074 10.5329 9.20295C10.4385 9.41319 10.3914 9.65193 10.3914 9.91916C10.3914 10.2001 10.4385 10.4487 10.5329 10.6648C10.6291 10.881 10.7726 11.0509 10.9632 11.1747C11.1538 11.2966 11.3915 11.3575 11.6764 11.3575C11.7629 11.3575 11.8533 11.3516 11.9476 11.3398C12.0439 11.328 12.1421 11.3123 12.2423 11.2926V10.5558H11.6764V9.93095H12.9969V11.7701C12.8534 11.8546 12.6628 11.9283 12.4251 11.9912C12.1893 12.0521 11.9299 12.0825 11.647 12.0825Z" fill="white"/>
</svg>
